<svg width="49" height="29" viewBox="0 0 49 29" fill="none" xmlns="http://www.w3.org/2000/svg">
<path d="M48.7617 14.5C48.7617 22.4564 42.2925 29 34.2617 29C26.3053 29 19.7617 22.4564 19.7617 14.5C19.7617 6.54359 26.231 0 34.1874 0C42.2925 0 48.7617 6.54359 48.7617 14.5Z" fill="#808080"/>
<path d="M29.3541 14.5744C29.3541 13.5333 29.2054 12.4923 29.0567 11.5256H20.1336C20.208 11.0051 20.3567 10.559 20.5054 9.9641H28.4618C28.3131 9.44359 28.09 8.92308 27.8669 8.40256H21.1003C21.3233 7.88205 21.6208 7.4359 21.9182 6.84103H27.049C26.7515 6.32051 26.3798 5.8 25.9336 5.27949H23.108C23.5541 4.75897 24.0003 4.31282 24.5951 3.79231C22.0669 1.41282 18.6464 0 14.8541 0C6.97206 0.223077 0.428467 6.54359 0.428467 14.5C0.428467 22.4564 6.8977 29 14.9285 29C18.7208 29 22.0669 27.5128 24.6695 25.2077C25.19 24.7615 25.6362 24.241 26.1567 23.6462H23.1823C22.8105 23.2 22.4387 22.6795 22.1413 22.159H27.1977C27.4951 21.7128 27.7926 21.1923 28.0156 20.5974H21.249C21.0259 20.1513 20.8028 19.6308 20.6541 19.0359H28.6105C29.0567 17.6974 29.3541 16.2103 29.3541 14.5744Z" fill="#686868"/>
<path d="M20.0613 18.2181L20.2844 16.8796C20.2101 16.8796 20.0613 16.954 19.9126 16.954C19.3921 16.954 19.3177 16.6565 19.3921 16.5078L19.8383 13.8309H20.6562L20.8793 12.3437H20.1357L20.2844 11.4514H18.7229C18.7229 11.4514 17.8306 16.5078 17.8306 17.1027C17.8306 17.995 18.3511 18.4412 19.0947 18.4412C19.5408 18.4412 19.9126 18.2924 20.0613 18.2181Z" fill="white"/>
<path d="M20.5818 15.7642C20.5818 17.9206 22.069 18.4411 23.2587 18.4411C24.3741 18.4411 24.8946 18.218 24.8946 18.218L25.192 16.7309C25.192 16.7309 24.3741 17.1027 23.5561 17.1027C21.8459 17.1027 22.1433 15.8386 22.1433 15.8386H25.2664C25.2664 15.8386 25.4895 14.8719 25.4895 14.4257C25.4895 13.4591 24.969 12.195 23.2587 12.195C21.7715 12.1206 20.5818 13.8309 20.5818 15.7642ZM23.2587 13.5334C24.0767 13.5334 23.9279 14.5001 23.9279 14.5745H22.2177C22.292 14.5001 22.4408 13.5334 23.2587 13.5334Z" fill="white"/>
<path d="M32.998 18.218L33.2954 16.5078C33.2954 16.5078 32.5518 16.8796 31.957 16.8796C30.9159 16.8796 30.3954 16.0616 30.3954 15.0949C30.3954 13.236 31.2877 12.2693 32.4031 12.2693C33.1467 12.2693 33.8159 12.7155 33.8159 12.7155L34.039 11.0796C34.039 11.0796 33.1467 10.7078 32.2544 10.7078C30.4698 10.7078 28.7595 12.2693 28.7595 15.1693C28.7595 17.1026 29.6518 18.3667 31.5108 18.3667C32.18 18.4411 32.998 18.218 32.998 18.218Z" fill="white"/>
<path d="M11.6573 12.1204C10.6163 12.1204 9.79835 12.4178 9.79835 12.4178L9.57527 13.7563C9.57527 13.7563 10.2445 13.4588 11.2855 13.4588C11.806 13.4588 12.2522 13.5332 12.2522 13.9793C12.2522 14.2768 12.1778 14.3511 12.1778 14.3511H11.5086C10.1701 14.3511 8.75732 14.8716 8.75732 16.6563C8.75732 18.0691 9.64963 18.3665 10.2445 18.3665C11.2855 18.3665 11.806 17.6973 11.8804 17.6973L11.806 18.2922H13.0701L13.665 14.0537C13.665 12.1947 12.1778 12.1204 11.6573 12.1204ZM11.9548 15.5409C11.9548 15.764 11.806 17.0281 10.9137 17.0281C10.4676 17.0281 10.3189 16.6563 10.3189 16.4332C10.3189 16.0614 10.5419 15.5409 11.7317 15.5409C11.8804 15.5409 11.9548 15.5409 11.9548 15.5409Z" fill="white"/>
<path d="M15.1529 18.3667C15.5247 18.3667 17.458 18.441 17.458 16.359C17.458 14.4256 15.5991 14.7974 15.5991 14.0538C15.5991 13.682 15.8965 13.5333 16.417 13.5333C16.6401 13.5333 17.458 13.6077 17.458 13.6077L17.6811 12.1949C17.6811 12.1949 17.1606 12.0461 16.1939 12.0461C15.0786 12.0461 13.8888 12.4923 13.8888 14.0538C13.8888 15.8384 15.8222 15.6897 15.8222 16.359C15.8222 16.8051 15.3016 16.8795 14.9298 16.8795C14.2606 16.8795 13.517 16.6564 13.517 16.6564L13.2939 18.0692C13.4427 18.2179 13.8888 18.3667 15.1529 18.3667Z" fill="white"/>
<path d="M45.7856 10.9309L45.4882 13.013C45.4882 13.013 44.8933 12.2694 44.001 12.2694C42.5882 12.2694 41.3984 13.9796 41.3984 15.9873C41.3984 17.2514 41.9933 18.5155 43.3318 18.5155C44.2241 18.5155 44.819 17.9207 44.819 17.9207L44.7446 18.4412H46.3061L47.4215 11.0796L45.7856 10.9309ZM45.042 14.9463C45.042 15.7642 44.6702 16.8796 43.7779 16.8796C43.2574 16.8796 42.96 16.4335 42.96 15.6155C42.96 14.3514 43.4805 13.6078 44.2241 13.6078C44.7446 13.6822 45.042 14.054 45.042 14.9463Z" fill="white"/>
<path d="M3.25354 18.2924L4.14584 12.7899L4.29456 18.2924H5.33559L7.34328 12.7899L6.52533 18.2924H8.16123L9.42533 10.9309H6.89713L5.33559 15.4668L5.26123 10.9309H3.03046L1.76636 18.2924H3.25354Z" fill="white"/>
<path d="M27.0499 18.2926C27.496 15.7644 27.5704 13.6824 28.6858 14.0541C28.8345 13.0875 29.0575 12.6413 29.2063 12.2695H28.9088C28.2396 12.2695 27.6447 13.1618 27.6447 13.1618L27.7934 12.3439H26.3063L25.3396 18.2926H27.0499Z" fill="white"/>
<path d="M36.5685 12.1204C35.5274 12.1204 34.7095 12.4178 34.7095 12.4178L34.4864 13.7563C34.4864 13.7563 35.1556 13.4588 36.1967 13.4588C36.7172 13.4588 37.1633 13.5332 37.1633 13.9793C37.1633 14.2768 37.089 14.3511 37.089 14.3511H36.4197C35.0813 14.3511 33.6685 14.8716 33.6685 16.6563C33.6685 18.0691 34.5608 18.3665 35.1556 18.3665C36.1967 18.3665 36.7172 17.6973 36.7915 17.6973L36.7172 18.2922H38.13L38.7249 14.0537C38.7249 12.1947 37.089 12.1204 36.5685 12.1204ZM36.9403 15.5409C36.9403 15.764 36.7915 17.0281 35.8992 17.0281C35.4531 17.0281 35.3044 16.6563 35.3044 16.4332C35.3044 16.0614 35.5274 15.5409 36.7172 15.5409C36.8659 15.5409 36.8659 15.5409 36.9403 15.5409Z" fill="white"/>
<path d="M39.9153 18.2926C40.3615 15.7644 40.4358 13.6824 41.5512 14.0541C41.6999 13.0875 41.923 12.6413 42.0717 12.2695H41.7743C41.1051 12.2695 40.5102 13.1618 40.5102 13.1618L40.6589 12.3439H39.1717L38.2051 18.2926H39.9153Z" fill="white"/>
</svg>
