<svg width="46" height="13" viewBox="0 0 46 13" fill="none" xmlns="http://www.w3.org/2000/svg">
<g clip-path="url(#clip0_20_397)">
<path d="M16.4204 12.9834H12.3268V5.36232H12.0556C11.2944 7.90326 10.5335 10.4412 9.77137 12.9851H6.66659C5.90653 10.4476 5.14442 7.90368 4.38068 5.35469H4.11888C4.10459 5.98898 4.11439 6.61987 4.11235 7.25076C4.11072 7.88461 4.11235 8.51847 4.11235 9.15233C4.11235 9.78619 4.11235 10.42 4.11235 11.0539C4.11235 11.6873 4.11235 12.3208 4.11235 12.9487C3.9596 13.0067 0.249543 13.0203 0 12.9656V0.0249579C0.0882181 0.0190261 0.173169 0.00885724 0.258119 0.00843354C1.52421 0.00758614 2.7903 0.00758614 4.05599 0.00758614C4.23242 0.00758614 4.40927 0.00207802 4.5853 0.00843354C5.3911 0.0380926 5.91755 0.488487 6.22836 1.22318C6.36967 1.55664 6.46361 1.91255 6.56203 2.26379C7.04723 3.99377 7.52631 5.72543 8.00824 7.45625C8.02662 7.52277 8.05153 7.5876 8.07563 7.65963H8.3656C8.38929 7.58379 8.41584 7.50625 8.43789 7.42744C8.98109 5.50257 9.52224 3.57684 10.0675 1.65282C10.1876 1.22869 10.3754 0.84143 10.6903 0.53001C11.0036 0.220284 11.3805 0.0558881 11.8069 0.0211446C12.0638 -4.04855e-05 12.3228 0.00885724 12.5809 0.00843354C13.7788 0.00758614 14.9766 0.00800984 16.1745 0.00800984H16.4094C16.4572 0.186812 16.4653 12.7436 16.4204 12.9839V12.9834Z" fill="white"/>
<path d="M31.1149 12.9847H26.9429V5.36151H26.6109C26.5815 5.42337 26.5463 5.49074 26.5161 5.56065C25.6494 7.55713 24.7811 9.55318 23.9173 11.5509C23.5886 12.3111 23.0409 12.7894 22.2539 12.9691C22.175 12.9869 22.0925 12.9949 22.0117 12.9949C20.8003 12.9966 19.5889 12.9962 18.3776 12.9953C18.3114 12.9953 18.2453 12.9881 18.1648 12.983V0.0521075C18.3053 -0.000855125 21.9831 -0.0220402 22.3413 0.0309225C22.347 0.1199 22.3584 0.214385 22.3584 0.309294C22.3592 2.66126 22.3592 5.01322 22.3592 7.36519V7.64695H22.6643C22.6962 7.58255 22.7354 7.50967 22.7689 7.43468C23.6474 5.45133 24.5279 3.46926 25.4011 1.48337C25.6523 0.911797 26.0089 0.453353 26.5696 0.18515C26.8134 0.0682082 27.0646 0.00422929 27.3378 0.00592409C28.5153 0.0122796 29.6924 0.0084663 30.8698 0.0084663C30.9503 0.0084663 31.0303 0.0084663 31.1043 0.0084663C31.1549 0.188539 31.1631 12.7475 31.1153 12.9852L31.1149 12.9847Z" fill="white"/>
<path d="M45.907 5.36833C45.822 5.37256 45.7485 5.37892 45.675 5.37892C43.2053 5.3785 40.7352 5.384 38.2655 5.37045C37.7447 5.36748 37.2187 5.3785 36.7045 5.23867C35.9191 5.02555 35.2256 4.63532 34.6183 4.08494C33.7921 3.33668 33.195 2.4253 32.8527 1.34232C32.7216 0.927091 32.6293 0.502543 32.6052 0.0326579C32.6849 0.0292683 32.7621 0.0233365 32.8392 0.0233365C34.6763 0.021218 36.5134 0.0199469 38.3504 0.0182521C39.378 0.0174047 40.4052 0.0182521 41.4327 0.0161336C42.2292 0.0140151 42.9888 0.177564 43.6913 0.571182C44.9455 1.27368 45.6835 2.36683 45.9388 3.81334C46.0238 4.29509 46.0242 4.77811 45.9368 5.26028C45.9319 5.2874 45.9221 5.31367 45.907 5.3679V5.36833Z" fill="#808080"/>
<path d="M45.6293 6.20299C45.5129 6.56271 45.3443 6.87456 45.136 7.16225C44.4408 8.12109 43.5039 8.69351 42.3918 8.97993C41.9801 9.08585 41.5615 9.12187 41.138 9.12102C39.7771 9.11805 38.4163 9.12017 37.0554 9.12017C36.9754 9.12017 36.8949 9.12017 36.7936 9.12017V12.9483C36.6303 13.0068 33.0395 13.0191 32.7957 12.9665V6.22502C32.8034 6.21528 32.8075 6.20935 32.8124 6.20469C32.8173 6.20002 32.8226 6.19494 32.8287 6.19367C32.8553 6.18816 32.8818 6.17969 32.9084 6.17969C37.1204 6.17969 41.3324 6.17969 45.5444 6.18053C45.5636 6.18053 45.5828 6.19028 45.6302 6.20299H45.6293Z" fill="white"/>
</g>
<defs>
<clipPath id="clip0_20_397">
<rect width="46" height="13" fill="white"/>
</clipPath>
</defs>
</svg>
