<svg width="45" height="14" viewBox="0 0 45 14" fill="none" xmlns="http://www.w3.org/2000/svg">
<g clip-path="url(#clip0_20_405)">
<path d="M44.9985 13.7257V13.807H41.6259C41.4793 13.1234 41.3357 12.4539 41.1914 11.7804H36.5073C36.2532 12.4547 35.9988 13.1302 35.7463 13.7997H31.9282C31.9482 13.7479 31.9628 13.7063 31.9806 13.6656C33.4046 10.3945 34.8286 7.12344 36.2532 3.8526C36.6255 2.99767 36.9973 2.14219 37.3741 1.28888C37.5224 0.953191 37.747 0.674891 38.0822 0.490531C38.4131 0.308607 38.7767 0.249319 39.1505 0.247154C40.0884 0.242281 41.0267 0.244717 41.9647 0.244988C41.9962 0.244988 42.0278 0.250944 42.0612 0.254192C42.3753 1.70119 42.6877 3.14223 43.0004 4.58327C43.3246 6.07737 43.6491 7.57148 43.973 9.06585C44.2682 10.4278 44.5626 11.7901 44.8589 13.1518C44.9008 13.344 44.9515 13.5343 44.9982 13.7255L44.9985 13.7257ZM37.5638 8.99898H40.5888C40.2263 7.30888 39.8661 5.62771 39.5006 3.92353C38.8519 5.62311 38.2116 7.30157 37.5638 8.99898Z" fill="white"/>
<path d="M30.0299 0C30.1619 0.0170553 30.2933 0.03763 30.4258 0.0506246C31.1891 0.12426 31.9295 0.290753 32.6474 0.550644C32.6649 0.556871 32.6809 0.566346 32.7164 0.583401C32.5529 1.54933 32.3888 2.52094 32.2239 3.49607C31.963 3.39374 31.7148 3.28897 31.4612 3.19855C30.5485 2.87288 29.6049 2.77704 28.6408 2.87477C28.2321 2.91619 27.8418 3.02611 27.5069 3.27219C27.3116 3.41594 27.1689 3.59516 27.1047 3.82689C27.0234 4.12171 27.1163 4.37943 27.3304 4.58247C27.519 4.76115 27.7267 4.93143 27.9538 5.06002C28.417 5.32262 28.8957 5.56004 29.3733 5.798C30.0552 6.13776 30.6988 6.52705 31.2318 7.06741C31.7359 7.57853 32.0688 8.1752 32.16 8.87825C32.2607 9.65522 32.1392 10.4065 31.8057 11.1214C31.3546 12.0887 30.5908 12.7625 29.6232 13.2382C28.9377 13.5752 28.2085 13.7845 27.4484 13.8877C27.0639 13.9399 26.6753 13.9635 26.2886 14C26.0249 14 25.7612 14.0003 25.4975 14.0005C24.4455 13.9564 23.4096 13.8148 22.4027 13.5097C22.1944 13.4466 21.9909 13.3684 21.781 13.2956C21.953 12.2712 22.1218 11.2641 22.2924 10.2476C22.5372 10.3534 22.7663 10.4541 22.9968 10.5518C23.6334 10.8212 24.2882 11.0345 24.9822 11.1122C25.6444 11.1864 26.308 11.2354 26.9694 11.1014C27.2742 11.0397 27.5646 10.9401 27.8232 10.7703C28.1975 10.525 28.4134 10.1977 28.3731 9.74483C28.354 9.52988 28.2566 9.34876 28.1137 9.18742C27.9009 8.94729 27.638 8.76455 27.3549 8.61349C26.9131 8.37796 26.4611 8.16031 26.0162 7.92992C25.3365 7.57772 24.6966 7.17326 24.1726 6.61774C23.4907 5.89492 23.2081 5.0519 23.3221 4.07948C23.4637 2.87315 24.0783 1.93862 25.0754 1.22338C25.8513 0.666783 26.733 0.339483 27.6774 0.166493C28.0261 0.102603 28.3819 0.0728236 28.7342 0.0262598C28.7542 0.0235526 28.7725 0.00947519 28.7916 0.000812159C29.2045 0.000812159 29.617 0 30.0299 0Z" fill="white"/>
<path d="M0 0.460148C0.0219512 0.392468 0.043621 0.324789 0.0697936 0.244385C0.115103 0.244385 0.166041 0.244385 0.216698 0.244385C2.08818 0.244385 3.95966 0.244385 5.83086 0.244385C6.10919 0.244385 6.38358 0.273893 6.64812 0.357816C7.16341 0.52106 7.45947 0.87814 7.56923 1.37708C7.70882 2.0111 7.83349 2.64811 7.96379 3.28403C8.14672 4.17605 8.32852 5.06834 8.51145 5.96036C8.60826 6.43277 8.70647 6.90517 8.803 7.37758C8.81116 7.4171 8.80976 7.45825 8.81285 7.49859C8.79456 7.46258 8.77345 7.42766 8.75826 7.3903C8.49006 6.73029 8.14925 6.10628 7.74287 5.51584C6.86989 4.24725 5.75629 3.21201 4.44034 2.37495C4.24615 2.2515 4.04099 2.14402 3.8409 2.02924C3.61829 1.90687 3.39991 1.77612 3.17223 1.66323C2.19962 1.1808 1.17861 0.820747 0.122702 0.55084C0.0835835 0.540823 0.0410882 0.544342 0 0.541364C0 0.514292 0 0.48722 0 0.460148Z" fill="#808080"/>
<path d="M3.84086 2.02914C4.04095 2.14393 4.24611 2.2514 4.44029 2.37485C5.75652 3.21192 6.87013 4.24715 7.74283 5.51574C8.14921 6.10645 8.49001 6.73019 8.75821 7.39021C8.77341 7.42757 8.79452 7.46249 8.81281 7.49849C8.92425 8.01394 9.0357 8.52966 9.14714 9.04512C9.17669 9.18156 9.2054 9.31827 9.2417 9.4891C10.4378 6.39098 11.6226 3.32291 12.8088 0.250244H16.6612C16.5917 0.417007 16.525 0.579439 16.4566 0.741059C14.6386 5.03846 12.8209 9.33614 11.0017 13.6333C10.9221 13.8212 10.9691 13.7892 10.7642 13.7895C9.5918 13.7908 8.41909 13.79 7.24667 13.79H7.08204C7.01028 13.5339 6.93908 13.2832 6.86984 13.0323C5.93551 9.64314 5.00146 6.25427 4.06769 2.86513C3.99086 2.58656 3.91628 2.30771 3.84058 2.02887L3.84086 2.02914Z" fill="white"/>
<path d="M19.503 13.8006H15.8577C16.6175 9.28151 17.376 4.77024 18.1355 0.252197H21.7808C21.0216 4.76834 20.2625 9.28232 19.503 13.8006Z" fill="white"/>
</g>
<defs>
<clipPath id="clip0_20_405">
<rect width="45" height="14" fill="white"/>
</clipPath>
</defs>
</svg>
